<svg width="128" height="128" viewBox="0 0 128 128" fill="none" xmlns="http://www.w3.org/2000/svg">
<rect width="128" height="128" fill="white"/>
<path d="M74.9 99.21C71.3067 99.21 67.86 98.55 64.56 97.23C61.26 95.91 58.4367 93.9667 56.09 91.4L61.15 85.35L61.92 84.47L62.47 85.02C62.5433 85.6067 62.69 86.1933 62.91 86.78C63.13 87.2933 63.6433 87.99 64.45 88.87C65.6967 89.97 67.1267 90.8867 68.74 91.62C70.3533 92.28 72.2967 92.61 74.57 92.61C77.5033 92.61 79.9233 92.0233 81.83 90.85C83.7367 89.6767 85.1667 88.0633 86.12 86.01C87.0733 83.8833 87.55 81.5 87.55 78.86C87.55 76.22 87.0733 73.9833 86.12 72.15C85.24 70.3167 83.9567 68.8867 82.27 67.86C80.5833 66.76 78.5667 66.0267 76.22 65.66C73.8733 65.22 71.2333 65.1467 68.3 65.44V59.28C71.82 59.28 74.68 58.9133 76.88 58.18C79.1533 57.4467 80.8767 56.4567 82.05 55.21C83.2967 53.9633 84.14 52.5333 84.58 50.92C85.02 49.2333 85.24 47.51 85.24 45.75C85.24 44.21 84.9833 42.8167 84.47 41.57C84.03 40.3233 83.37 39.26 82.49 38.38C81.6833 37.5 80.6567 36.84 79.41 36.4C78.2367 35.8867 76.9167 35.63 75.45 35.63C73.9833 35.63 72.5167 35.8133 71.05 36.18C69.6567 36.4733 68.2633 36.9867 66.87 37.72C65.55 38.4533 64.23 39.4433 62.91 40.69L58.29 36.07C60.7833 33.5033 63.4967 31.7067 66.43 30.68C69.4367 29.58 72.4067 29.03 75.34 29.03C79.08 29.03 82.27 29.7633 84.91 31.23C87.55 32.6233 89.5667 34.6033 90.96 37.17C92.4267 39.7367 93.16 42.7067 93.16 46.08C93.16 48.4267 92.7567 50.6633 91.95 52.79C91.2167 54.8433 90.0433 56.64 88.43 58.18C86.8167 59.72 84.8 60.8933 82.38 61.7C84.9467 62.5067 87.22 63.7167 89.2 65.33C91.18 66.87 92.72 68.7767 93.82 71.05C94.92 73.3233 95.47 76.0367 95.47 79.19C95.47 82.7833 94.6633 86.12 93.05 89.2C91.51 92.2067 89.2 94.6267 86.12 96.46C83.1133 98.2933 79.3733 99.21 74.9 99.21Z" fill="black"/>
<path d="M37.12 61V41.064H39.808L44.032 50.408L48.32 41.032H50.976V61H48.192V46.696L44.672 54.28H43.2L39.872 46.76V61H37.12Z" fill="black"/>
<path d="M54.176 61L54.176 90.904H50.816L43.952 76.552L36.992 90.952H33.728L33.728 61H37.424L37.424 82.984L43.28 71.32H45.056L50.528 82.888L50.528 61H54.176Z" fill="black"/>
</svg>
